/* XPM */
static char *_c86fec88a0a4abeeda7917491bb4d49DSQ3itUyVDWUSVpO[] = {
/* columns rows colors chars-per-pixel */
"32 32 15 1 ",
"  c None",
". c #2F2F2E",
"X c #6E9FBA",
"o c #BAB8D5",
"O c #807F89",
"+ c #2F2F2E",
"@ c #807F89",
"# c #BAB8D5",
"$ c #9E293B",
"% c #F1F0FD",
"& c #741A33",
"* c #64636D",
"= c #624023",
"- c #784F2C",
"; c white",
/* pixels */
"                                ",
"                                ",
"                                ",
"                                ",
"                                ",
"                                ",
"                                ",
"                                ",
"                                ",
"                +++++.          ",
"               +@@###+.         ",
"           ++++@@#####+         ",
"           +@###@+@#@@+         ",
"           .+@#@#+$@@@+         ",
"              +@##@@##+         ",
"             ++@###@##+         ",
"           ++@@+@#%++%+X        ",
"          +@###+@#+&+@+X        ",
"         +@####@+@+&$@++.       ",
"        +########+@&$++#+       ",
"       +##########++&+##+       ",
"      +###@+*##@###+&&+##+.     ",
"    ++###@++**@@@@@++++@#+.     ",
"   +##@@@+o+*@##@@#+ .+@@@++.   ",
"   +#++++oO+*@@@@@+....+@###+   ",
"   ++@+@#++*@@##@#+....+@@+#+   ",
"   .+@#++++==-----+.   .++@+@+. ",
"   .+++oo+@#-====++.   +@@++@+. ",
"   .  ooO+@@+===+@#+.  +++ +++. ",
"    O..O+@#++=--+@@#+.        . ",
"   . ...+@#++==-++@#+.          ",
"    .OO.+++..++++O+++ .......   "
};
