/* XPM */
static char *cd14a9fd559d45fef934fe31a696b0c7uBjyH1ERnieEt0Z8[] = {
/* columns rows colors chars-per-pixel */
"64 64 170 2 ",
"   c None",
".  c #101010",
"X  c #111111",
"o  c gray7",
"O  c #121313",
"+  c #131414",
"@  c #131415",
"#  c gray8",
"$  c #141415",
"%  c #141416",
"&  c #141516",
"*  c #151516",
"=  c #151718",
"-  c #161718",
";  c #161719",
":  c #171819",
">  c #202020",
",  c gray13",
"<  c #212122",
"1  c #212222",
"2  c #222222",
"3  c #222223",
"4  c #232323",
"5  c #232324",
"6  c #232325",
"7  c #232424",
"8  c #242425",
"9  c #242525",
"0  c #252525",
"q  c #242426",
"w  c #252526",
"e  c gray15",
"r  c #27272A",
"t  c #272828",
"y  c #282929",
"u  c #57130E",
"i  c #57130F",
"p  c #55150F",
"a  c #57140F",
"s  c #56150F",
"d  c #58110D",
"f  c #59120D",
"g  c #59120E",
"h  c #5C120D",
"j  c #5D110F",
"k  c #5E110E",
"l  c #5D130E",
"z  c #5E120E",
"x  c #58140E",
"c  c #58140F",
"v  c #59140F",
"b  c #5A140F",
"n  c #571310",
"m  c #571410",
"M  c #571510",
"N  c #581210",
"B  c #581310",
"V  c #5B1410",
"C  c #660600",
"Z  c #660700",
"A  c #670700",
"S  c #6D0600",
"D  c #6E0701",
"F  c #650800",
"G  c #670801",
"H  c #670902",
"J  c #6A0802",
"K  c #6E0E0C",
"L  c #740601",
"P  c #7D0101",
"I  c #7D0103",
"U  c #7D0806",
"Y  c #7C0A0B",
"T  c #60120E",
"R  c #6A110F",
"E  c #7B0D12",
"W  c #6E1111",
"Q  c #6B171B",
"!  c #6D1718",
"~  c #701314",
"^  c #791011",
"/  c #78171C",
"(  c gray26",
")  c #434343",
"_  c #444545",
"`  c #4E5356",
"'  c #4F5457",
"]  c #4E5557",
"[  c #4F5558",
"{  c #505558",
"}  c gray36",
"|  c #5D5D5D",
" . c #5F5F5F",
".. c #800000",
"X. c #800002",
"o. c #840402",
"O. c #880202",
"+. c #8E0000",
"@. c #8F0000",
"#. c #8C0E0C",
"$. c #930000",
"%. c #910302",
"&. c #930202",
"*. c #930303",
"=. c #950000",
"-. c #960000",
";. c #960100",
":. c #960101",
">. c #970101",
",. c #950201",
"<. c #960200",
"1. c #920505",
"2. c #990000",
"3. c #9A0000",
"4. c #8D100D",
"5. c #881813",
"6. c #8A1812",
"7. c #8A1C13",
"8. c #891D14",
"9. c #891C15",
"0. c #8A1D15",
"q. c #891E15",
"w. c #AF0302",
"e. c #A50806",
"r. c #B10101",
"t. c #B30000",
"y. c #B20101",
"u. c #B40000",
"i. c #B50000",
"p. c #B60000",
"a. c #B70000",
"s. c #B80000",
"d. c #B90000",
"f. c #B80100",
"g. c #B90100",
"h. c #BA0000",
"j. c #BC0000",
"k. c #BC0600",
"l. c #BD0600",
"z. c #BD0B00",
"x. c #BE0C00",
"c. c #B10D08",
"v. c #A11004",
"b. c #A31307",
"n. c #A41307",
"m. c #A21408",
"M. c #C50000",
"N. c #D40000",
"B. c #D50100",
"V. c #D70000",
"C. c #D90000",
"Z. c #DD0000",
"A. c #DE0000",
"S. c #D6160D",
"D. c #FF0100",
"F. c #9B8769",
"G. c #9C8669",
"H. c #9B886A",
"J. c #9E896A",
"K. c #A08A6B",
"L. c #A18B6B",
"P. c #A28B6B",
"I. c #A08B6C",
"U. c #A18C6C",
"Y. c #A28C6C",
"T. c #808080",
"R. c #A4A4A4",
"E. c #ECCDA1",
"W. c #FFDFB1",
"Q. c #C5C5C5",
/* pixels */
"                                                                                                                                ",
"                                                                                                                                ",
"                                                                                                                                ",
"                                                                                                                                ",
"                                                                                                                                ",
"                                                                                                                                ",
"                                                                                                                                ",
"                                                                                                                                ",
"                                                                                                                                ",
"                                                                                                                                ",
"                                                ; $ $ $ 3 3 3 3 3 3 $ $ $ :                                                     ",
"                                                o o o o 3 3 3 3 3 3 o o o $                                                     ",
"                                            $ $ 3 3 3 3 ) ) e e ) ) e e 3 3 $ :                                                 ",
"                                            $ o 3 3 3 3 ) ) e e ) ) e e 3 3 o $                                                 ",
"                                        $ $ 3 3 ) ) | | ) ) ) ) e e e e e e 3 3 $ $                                             ",
"                                        $ o > 3 ) ) | | ) ) ) ) e e e e e e 3 3 o $                                             ",
"                                        6 3 ) ) | | ) ) ) ) ) ) ) ) e e e e e e 3 3                                             ",
"                                        6 3 ) ) | | ) ) ) ) ) ) ) ) e e e e e e 3 3                                             ",
"                                        $ o | | ) ) | | ) ) ) ) e e e e e e e e o $                                             ",
"                                        $ o | | ) ) | | ) ) ) ) e e e e e e e e o $                                             ",
"                                        $ o ) ) | | ) ) ) ) ) ) ) ) e e e e e e o @                                             ",
"                                        $ o ) ) | | ) ) ) ) ) ) ) ) e e e e e e o @                                             ",
"                                    $ $ r 3 | | ) ) | | ) ) | | ) ) e e 3 3 e e 3 3 $ $                                         ",
"                                    $ o 3 3 | | ) ) | | ) ) | | ) ) e e 3 3 e e 3 3 o o                                         ",
"                                    $ o e e ) ) | | ) ) e e ) ) 3 3 o o 3 3 e e e e o o                                         ",
"                                    $ o e e ) ) | | ) ) e t ) ) 3 3 $ : e e 7 e e e o o                                         ",
"                                    $ o e e e e ) ) 3 e H.H.e e P.H.M.M.G.G.3 3 e e o o                                         ",
"                                    $ o e e e e _ _ 3 e P.F.e y P.P.M.M.J.P.3 3 e e o o                                         ",
"                                    $ o 3 3 3 e J.P.P.Y.P.Y.I.I.Y.Y.P.P.Y.P.> > 3 3 o o                                         ",
"                                    @ o 3 3 3 6 P.Y.Y.Y.Y.Y.Y.Y.Y.Y.Y.Y.Y.P.3 > 3 3 o o                                         ",
"                                    $ o 3 3 E.E.W.W.W.W.W.W.W.W.W.W.W.W.E.E.o . 3 3 o o                                         ",
"                                    $ $ 3 3 E.E.W.W.W.W.W.W.W.W.W.W.W.W.E.E.$ O 3 3 @ ;                                         ",
"                                        o o N N E.E.W.W.Q.Q.W.W.Q.Q.W.W.E.E.E / o o                                             ",
"                                        o o N N E.E.W.W.Q.Q.W.W.Q.Q.W.W.E.E.Y ^ o o                                             ",
"                                    o o b N N N N N E.E.E.E.E.E.E.E.E.E...P N.N.~ ! o o                                         ",
"                                    o o s N N N N N E.E.E.E.E.E.E.E.E.E...P N.N.K R o o                                         ",
"                                o o =.=.s s 4.5.N N N N E.E.E.E.....A.A.c.s.N.N.s.j.w.w.o o                                     ",
"                                o o =.=.s s #.5.N N N N E.E.E.E.....A.A.c.i.N.N.s.s.t.t.o o                                     ",
"                                m m =.=.u s n g t.t.i.i.s.i.s.s.s.s.s.s.c.c.S J s.s.s.k.G G                                     ",
"                                m m =.=.u s m g t.t.i.i.i.s.s.s.s.s.s.s.c.c.L S s.s.s.k.G G                                     ",
"                            z b =.=.=.=.$.1.N g t.t.Q Q | | | | @.@.e.e.O.o.e.e.i.i.e.e.G G                                     ",
"                            T z =.=.=.=.=.$.b V t.t.Q Q | | | | @.@.e.e.O.O.e.e.s.i.e.e.C G                                     ",
"                            T T T T =.=.b b =.=.t.t.R.R.T.T.R.R.e.e.s.s.s.s.e.e.i.s.e.e.C C o o                                 ",
"                            T T T z =.=.z z =.=.t.t.R.R.T.T.R.R.e.e.s.s.s.s.e.e.s.s.e.e.G C o o                                 ",
"                            o o o o Y Y W W N.N.=.=.| | R.R.Q.Q.2.2.e.e.s.s.=.$.s.s.o o e e o o                                 ",
"                            o o o o Y Y K W N.N.=.=.| | R.R.Q.Q.2.2.e.e.s.s.=.$.s.s.o o e e o o                                 ",
"                            o o ) ) U Y o o N.N.o o T.T.R.R.R.R.R.R.2.2.s.s.o o 8.8.e e _ _ o o                                 ",
"                            o o ) ) Y Y o o C.C.o o T.T.R.R.R.R.R.R.2.2.s.s.o o 8.8.e e _ _ o o                                 ",
"                            o o ) ) e e o o v.v.o o Q.Q.T.T.T.T.T.T.o o 8.8.o o e e _ _ _ _ o o                                 ",
"                            o o ) ) e e o o n.m.o o Q.Q.T.T.T.T.T.T.o o 8.7.o o e e _ _ _ _ o o                                 ",
"                            o o ) ) ) ) e e o o o o S.S.D.D.x.x.2.2.o o o o 3 3 e e _ _ ` ' o o                                 ",
"                            o o ) ) ) ) e e o o o o S.S.D.D.x.x.2.2.o o o o 3 3 e e _ _ { ' o o                                 ",
"                            o o e e e e o o e e o o o o R.R. . .z.z.o o e e 3 3 e e _ _ [ { o o                                 ",
"                            o o e e e e o o e e o o o o R.R. . .z.z.o o e e 3 3 e e _ _ { { o o                                 ",
"                                o o o o e e _ _ e e o o Q.Q.o o o o o o 3 3 o o e e _ _ e e o o                                 ",
"                                o o o o e e _ _ e e o o Q.Q.o o o o o o 3 3 o o e e _ _ e e o o                                 ",
"                                o o o o o o o o e e o o T.T.o o o o o o o o o o o o o o o o                                     ",
"                                o o o o o o o o e e o o T. .o o o o o o o o o o o o o o o o                                     ",
"                                o o o o o o o o o o o o o o o o o o o o o o o o o o o o o o                                     ",
"                                o o o o o o o o o o o o o o o o o o o o o o o o o o o o o o                                     ",
"                                    o o o o o o o o o o o o o o o o o o o o o o o o o o                                         ",
"                                    o o o o o o o o o o o o o o o o o o o o o o o o o o                                         ",
"                                            o o o o o o o o o o o o o o o o o o                                                 ",
"                                            o o o o o o o o o o o o o o o o o o                                                 "
};
